<svg id="c065a58d-53d8-456a-a515-989a064ee49b" data-name="Calque 1" xmlns="http://www.w3.org/2000/svg" viewBox="0 0 737.16 160.36"><defs><style>.\33 b4f32f3-58aa-4b14-8658-96bbcfe556d5{fill:#00a5a5;}</style></defs><title>final-3</title><polygon class="3b4f32f3-58aa-4b14-8658-96bbcfe556d5" points="100.56 157.84 41.79 78.4 40.75 77 42.01 75.78 95.19 24.13 86.97 24.13 9.45 99.27 6.06 102.56 6.06 97.84 6.06 24.13 0 24.13 0 157.84 6.06 157.84 6.06 111.8 6.06 110.95 6.67 110.36 34.72 83.2 36.37 81.6 37.72 83.45 92.08 157.84 100.56 157.84"/><path class="3b4f32f3-58aa-4b14-8658-96bbcfe556d5" d="M352.26,51.87C341.13,41.11,324,35.65,301.45,35.65H261.83V169.23h39.63c22.52,0,39.59-5.68,50.74-16.89S369,124,369,101.31C369,79.26,363.37,62.62,352.26,51.87Zm-2.76,94.83a44.55,44.55,0,0,1-19,12.32c-7.76,2.75-17.61,4.14-29.28,4.14H267.89V41.58H301.2c11.73,0,21.62,1.35,29.38,4s14.27,6.71,19,11.93a44,44,0,0,1,10,19,101.81,101.81,0,0,1,2.76,24.76,107.21,107.21,0,0,1-2.83,25.76A46.43,46.43,0,0,1,349.49,146.71Z" transform="translate(-13.56 -11.39)"/><path class="3b4f32f3-58aa-4b14-8658-96bbcfe556d5" d="M587,107.11a24.77,24.77,0,0,1,10.73,2.21,27.28,27.28,0,0,1,8.07,5.9,38.72,38.72,0,0,1,6,8.55,92.51,92.51,0,0,1,4.56,10.16l13.23,35.31h6.78l-13.18-34.77-3.33-8.67a46.54,46.54,0,0,0-3.13-6.63,32.84,32.84,0,0,0-4.09-5.57A48.77,48.77,0,0,0,606.5,108l-3.42-2.65,4.23-.89a36.6,36.6,0,0,0,11.87-4.58,29.46,29.46,0,0,0,8.25-7.54,31.45,31.45,0,0,0,4.84-10.05A45.2,45.2,0,0,0,633.9,70c0-7-1.19-12.81-3.54-17.24a27.11,27.11,0,0,0-9.43-10.38,39.73,39.73,0,0,0-13.77-5.32,86.57,86.57,0,0,0-16.41-1.54h-60V169.23h6.06V107.11H587ZM536.81,99V41.58h52.68c12.26,0,21.67,2.17,28,6.44,6.55,4.44,9.87,11.83,9.87,22a38,38,0,0,1-2.41,14.34,22.63,22.63,0,0,1-7.65,9.85,32.64,32.64,0,0,1-12.79,5.31A89.92,89.92,0,0,1,586.6,101H536.81Z" transform="translate(-13.56 -11.39)"/><polygon class="3b4f32f3-58aa-4b14-8658-96bbcfe556d5" points="730.31 24.13 683.74 91.31 682.1 93.67 680.46 91.31 633.52 24.13 626.55 24.13 678.71 99.59 679.07 100.11 679.07 100.73 679.07 157.84 685.13 157.84 685.13 100.73 685.13 100.11 685.48 99.6 737.16 24.13 730.31 24.13"/><path class="3b4f32f3-58aa-4b14-8658-96bbcfe556d5" d="M226.41,152.47a65.93,65.93,0,0,0,13-22,83.63,83.63,0,0,0,4.66-28.5,82,82,0,0,0-4.72-28.48,64.85,64.85,0,0,0-13-21.72,57,57,0,0,0-19.87-13.85,68,68,0,0,0-50.57,0A58.19,58.19,0,0,0,136,51.68a63.57,63.57,0,0,0-13.1,21.65,82.31,82.31,0,0,0-4.72,28.61,84,84,0,0,0,4.66,28.62,65.15,65.15,0,0,0,13,22,58.31,58.31,0,0,0,19.89,14.17,66.64,66.64,0,0,0,50.9,0A58.1,58.1,0,0,0,226.41,152.47Zm-22.79,9a62.29,62.29,0,0,1-45.15,0,49.41,49.41,0,0,1-18-12.51,57.87,57.87,0,0,1-11.67-20.12,81.52,81.52,0,0,1-4.14-26.88,78.77,78.77,0,0,1,4.21-26.71,56.36,56.36,0,0,1,11.81-19.75,50.46,50.46,0,0,1,18-12.24,60.53,60.53,0,0,1,22.69-4.17,59.67,59.67,0,0,1,22.31,4.1,49.41,49.41,0,0,1,17.82,12.19A56.92,56.92,0,0,1,233.3,75.1a79.22,79.22,0,0,1,4.21,26.84,81.56,81.56,0,0,1-4.14,26.88,57.41,57.41,0,0,1-11.74,20.13A50,50,0,0,1,203.62,161.45Z" transform="translate(-13.56 -11.39)"/><rect class="3b4f32f3-58aa-4b14-8658-96bbcfe556d5" x="135.05" width="65.19" height="6.73"/><path class="3b4f32f3-58aa-4b14-8658-96bbcfe556d5" d="M494,152.47a65.92,65.92,0,0,0,13-22,83.62,83.62,0,0,0,4.66-28.5A82,82,0,0,0,507,73.45a64.86,64.86,0,0,0-13-21.72A57,57,0,0,0,474,37.88a68,68,0,0,0-50.57,0,58.19,58.19,0,0,0-19.88,13.8,63.57,63.57,0,0,0-13.1,21.65,82.32,82.32,0,0,0-4.72,28.61,84,84,0,0,0,4.66,28.62,65.15,65.15,0,0,0,13,22A58.31,58.31,0,0,0,423.3,166.7a66.64,66.64,0,0,0,50.9,0A58.09,58.09,0,0,0,494,152.47Zm-22.79,9a62.29,62.29,0,0,1-45.15,0,49.4,49.4,0,0,1-17.95-12.51,57.86,57.86,0,0,1-11.67-20.12,81.51,81.51,0,0,1-4.14-26.88,78.77,78.77,0,0,1,4.21-26.71,56.36,56.36,0,0,1,11.81-19.75,50.46,50.46,0,0,1,18-12.24A60.54,60.54,0,0,1,449,39.07a59.66,59.66,0,0,1,22.31,4.1,49.41,49.41,0,0,1,17.82,12.19A56.92,56.92,0,0,1,500.9,75.1a79.21,79.21,0,0,1,4.21,26.84A81.58,81.58,0,0,1,501,128.82a57.42,57.42,0,0,1-11.74,20.13A50,50,0,0,1,471.23,161.45Z" transform="translate(-13.56 -11.39)"/><rect class="3b4f32f3-58aa-4b14-8658-96bbcfe556d5" x="402.56" width="65.19" height="6.73"/></svg>